inDegrees=yes
name=ik_S44_A07_T01
DataType=double
version=3
OpenSimVersion=4.3-2021-08-27-4bc7ad9
endheader
time	pelvis_tilt	pelvis_list	pelvis_rotation	pelvis_tx	pelvis_ty	pelvis_tz	hip_flexion_r	hip_adduction_r	hip_rotation_r	knee_angle_r	knee_angle_r_beta	ankle_angle_r	subtalar_angle_r	mtp_angle_r	hip_flexion_l	hip_adduction_l	hip_rotation_l	knee_angle_l	knee_angle_l_beta	ankle_angle_l	subtalar_angle_l	mtp_angle_l	lumbar_extension	lumbar_bending	lumbar_rotation	arm_flex_r	arm_add_r	arm_rot_r	elbow_flex_r	pro_sup_r	wrist_flex_r	wrist_dev_r	arm_flex_l	arm_add_l	arm_rot_l	elbow_flex_l	pro_sup_l	wrist_flex_l	wrist_dev_l
8.039999999999917	-9.30627891950016	-3.795271770253485	28.8874965247922	0	0.9399999999999999	0	31.68765422639396	-13.32849352541307	-9.36372971129731	54.8541826726877	0.9573860961288233	0	0	0	31.68765422639396	-13.32849352541307	-9.36372971129731	54.8541826726877	0.9573860961288233	0	0	0	-5.163215139366431	-5.59711046397421	10.106365542983	81.27553546409642	3.399665244117618	9.458754836838249	17.31569120998164	104.2598069416028	0	0	42.95024543629922	2.532976718831517	3.577225643863699	34.98494981820597	134.2265923094372	0	0
8.059999999999917	-9.343142749607949	-3.904984612570843	28.9304459221183	0	0.9399999999999999	0	31.69160818392372	-13.3251426435962	-9.364138651242664	54.85421093728647	0.9573865894391337	0	0	0	31.69160818392372	-13.3251426435962	-9.364138651242664	54.85421093728647	0.9573865894391337	0	0	0	-5.248637957405408	-5.675420430302717	10.11925821530555	81.48461717841195	3.343026473905028	9.318450503492015	16.98949514428157	104.3149826686025	0	0	43.08601737837436	2.484553652471187	3.614507845703602	35.05021650332175	134.292801185302	0	0
8.079999999999917	-9.367317476615639	-3.94989582584267	28.93659647869931	0	0.9399999999999999	0	31.69597935062439	-13.32141580242128	-9.364592498826092	54.85424198284652	0.9573871312863748	0	0	0	31.69597935062439	-13.32141580242128	-9.364592498826092	54.85424198284652	0.9573871312863748	0	0	0	-5.294674737320245	-5.697206895482198	10.08681818376332	81.51605603714724	3.5266752834483	9.357994410527743	16.69736492171426	104.3759069873252	0	0	43.13256524347339	2.439714776564441	3.52425906219374	35.13462787900831	134.2495403362983	0	0
8.099999999999916	-9.404546761509856	-3.992012609932144	28.93201636354425	0	0.9399999999999999	0	31.69726637085841	-13.32033794844872	-9.364724633267999	54.85425128811915	0.9573872936940199	0	0	0	31.69726637085841	-13.32033794844872	-9.364724633267999	54.85425128811915	0.9573872936940199	0	0	0	-5.348481225584742	-5.71475351984656	10.08520234727164	81.46904501143607	3.499984413649158	9.282071619258218	16.66161868437192	104.3876912077147	0	0	43.1754308891255	2.423625339896241	3.457654282806135	35.18341141471048	134.2688232242742	0	0
8.119999999999916	-9.455707574024673	-4.045139164875224	28.89484111499385	0	0.9399999999999999	0	31.69949074541152	-13.31846286967589	-9.364953980890714	54.85426725233091	0.9573875723220776	0	0	0	31.69949074541152	-13.31846286967589	-9.364953980890714	54.85426725233091	0.9573875723220776	0	0	0	-5.421029434469973	-5.732845116725231	10.06948863196765	81.4854499077541	3.513434220960727	9.207240780294805	16.61367990344392	104.5494778056421	0	0	43.25584783135907	2.395155059899196	3.392832104211769	35.28427807705215	134.2957045269316	0	0
8.139999999999915	-9.502086884170913	-4.089952526612268	28.83809140566067	0	0.9399999999999999	0	31.7042049989564	-13.31447082259337	-9.365441487701375	54.8543009177697	0.9573881598948285	0	0	0	31.7042049989564	-13.31447082259337	-9.365441487701375	54.8543009177697	0.9573881598948285	0	0	0	-5.485080290608983	-5.746557764870098	10.06408985860474	81.58187900359144	3.563394996924179	9.194651673677646	16.5384308367079	105.006118414508	0	0	43.26370198305352	2.43118174915186	3.372389451747863	35.43295866532299	134.3169094056253	0	0
8.159999999999915	-9.530017215187501	-4.109046817802946	28.78532394192268	0	0.9399999999999999	0	31.7085249227531	-13.31083671659956	-9.365886368557154	54.85433197310581	0.9573887019126941	0	0	0	31.7085249227531	-13.31083671659956	-9.365886368557154	54.85433197310581	0.9573887019126941	0	0	0	-5.520470685276455	-5.746803883597125	10.05416531983484	81.63274582882994	3.565525963891376	9.347017685684694	16.4872663292265	105.5364564844124	0	0	43.32986717631594	2.416986105667248	3.325075042151945	35.45076492898603	134.3023997658011	0	0
